<?xml version="1.0" encoding="UTF-8" standalone="no"?>
<svg
   xmlns:dc="http://purl.org/dc/elements/1.1/"
   xmlns:cc="http://creativecommons.org/ns#"
   xmlns:rdf="http://www.w3.org/1999/02/22-rdf-syntax-ns#"
   xmlns:svg="http://www.w3.org/2000/svg"
   xmlns="http://www.w3.org/2000/svg"
   xmlns:xlink="http://www.w3.org/1999/xlink"
   id="svg2"
   version="1.1"
   viewBox="0 0 128 128"
   height="128px"
   width="128px">
  <metadata
     id="metadata14">
    <rdf:RDF>
      <cc:Work
         rdf:about="">
        <dc:format>image/svg+xml</dc:format>
        <dc:type
           rdf:resource="http://purl.org/dc/dcmitype/StillImage" />
        <dc:title>empty</dc:title>
      </cc:Work>
    </rdf:RDF>
  </metadata>
  <!-- Generator: Sketch 3.0.2 (7799) - http://www.bohemiancoding.com/sketch -->
  <title
     id="title4">empty</title>
  <description
     id="description6">Created with Sketch.</description>
  <defs
     id="defs8">
    <linearGradient
       id="linearGradient3761">
      <stop
         style="stop-color:#4e748b;stop-opacity:1;"
         offset="0"
         id="stop4368" />
      <stop
         style="stop-color:#393e3f;stop-opacity:1;"
         offset="1"
         id="stop4370" />
    </linearGradient>
    <linearGradient
       id="linearGradient4372">
      <stop
         id="stop3763"
         offset="0"
         style="stop-color:#527dff;stop-opacity:1" />
      <stop
         id="stop3765"
         offset="1"
         style="stop-color:#254eab;stop-opacity:1" />
    </linearGradient>
    <linearGradient
       gradientUnits="userSpaceOnUse"
       y2="109.06779"
       x2="57.084743"
       y1="16.90678"
       x1="57.084743"
       id="linearGradient4364"
       xlink:href="#linearGradient4372" />
  </defs>
  <g
     transform="translate(-0.9549194,-0.0677968)"
     id="g4374">
    <g
       id="g4329"
       transform="matrix(3.4285714,0,0,3.4285714,4.9549199,4.0677973)">
      <g
         id="g4289">
        <path
           id="path4291"
           d="M 25.302,0 9.698,0 C 8.398,0 7.334,1.063 7.334,2.364 l 0,30.271 C 7.334,33.936 8.398,35 9.698,35 l 15.604,0 c 1.3,0 2.364,-1.062 2.364,-2.364 l 0,-30.272 C 27.666,1.063 26.602,0 25.302,0 Z m -10.298,1.704 4.992,0 c 0.158,0 0.286,0.128 0.286,0.287 0,0.158 -0.128,0.286 -0.286,0.286 l -4.992,0 c -0.158,0 -0.286,-0.128 -0.286,-0.286 0,-0.159 0.128,-0.287 0.286,-0.287 z M 17.5,33.818 c -0.653,0 -1.182,-0.529 -1.182,-1.183 0,-0.654 0.529,-1.182 1.182,-1.182 0.653,0 1.182,0.528 1.182,1.182 0,0.654 -0.529,1.183 -1.182,1.183 z m 8.521,-3.193 -17.042,0 0,-26.876 17.042,0 0,26.876 z" />
      </g>
      <g
         id="g4293" />
      <g
         id="g4295" />
      <g
         id="g4297" />
      <g
         id="g4299" />
      <g
         id="g4301" />
      <g
         id="g4303" />
      <g
         id="g4305" />
      <g
         id="g4307" />
      <g
         id="g4309" />
      <g
         id="g4311" />
      <g
         id="g4313" />
      <g
         id="g4315" />
      <g
         id="g4317" />
      <g
         id="g4319" />
      <g
         id="g4321" />
    </g>
    <rect
       style="fill:url(#linearGradient4364);fill-opacity:1;stroke:none;stroke-width:8;stroke-miterlimit:4;stroke-dasharray:none;stroke-opacity:1"
       id="rect4356"
       width="58.440678"
       height="92.161018"
       x="35.728813"
       y="16.90678" />
  </g>
  <path
     id="path4207"
     d="m 52.382325,85.406996 c -1.12849,-0.166361 -2.80563,-0.874065 -2.80563,-1.183897 0,-0.127613 0.34618,-0.436128 0.76928,-0.685596 1.04366,-0.615341 1.66811,-1.308465 2.15002,-2.386457 0.4154,-0.929225 0.53813,-2.30028 0.28759,-3.212903 -0.13569,-0.494295 -0.14767,-0.497787 -1.71702,-0.500445 -5.61461,-0.0095 -9.87623,-3.570475 -10.82035,-9.041377 -0.25667,-1.487317 -0.25613,-1.786699 0.006,-3.305425 0.41738,-2.418618 1.23365,-4.003808 2.96271,-5.753595 1.33816,-1.354198 3.08882,-2.460872 4.38749,-2.773522 0.43581,-0.104924 0.48934,-0.233568 0.75038,-1.803394 0.49218,-2.959829 1.80403,-5.570501 3.90708,-7.775328 2.86071,-2.999156 6.36218,-4.474076 10.62098,-4.473853 2.51099,1.31e-4 4.31953,0.42657 6.5163,1.536498 3.12218,1.577493 5.04563,3.529441 6.59622,6.693929 1.0542,2.151484 1.45865,3.830172 1.45865,6.054262 l 0,1.638597 0.8718,0 c 2.54173,0 5.10266,1.046457 6.82513,2.788916 5.21322,5.273709 2.78947,14.072427 -4.38888,15.932528 -0.92685,0.240168 -2.50753,0.284438 -10.15615,0.284438 l -9.05845,0 -0.1084,0.859795 c -0.25126,1.993068 -0.83884,3.287113 -2.12719,4.684821 -1.71911,1.865001 -4.38455,2.7969 -6.92752,2.422008 z"
     style="fill:#ffffff;fill-opacity:1" />
</svg>
